<svg xmlns="http://www.w3.org/2000/svg" viewBox="0 0 1171 1171"><g fill="#270a49"><path d="M226.68 43.46c2.53-5.92 9.84-6.02 15.32-6.56 30.47-1.81 60.18 7.72 88.02 19.16 31.62 13.38 61.44 30.72 89.91 49.85 108.02-27.55 223.08-28.02 331.05.11 39.99-26.32 82.23-50.56 128.7-63.32 18.88-4.77 38.79-8.38 58.17-4.64 6.48 1.06 7.93 8.03 9.93 13.17 20.25 53.96 25.25 115.07 6.48 170.17 29.51 33.06 50.93 73.44 60.87 116.67 7.66 32.41 7.93 65.98 6.04 99.06 46.18-12.11 95.55-14.49 142.01-2.5 4.2.79 6.3 4.82 7.82 8.39v1.78c-1.74 5.27-6.96 9.9-12.8 8.05-44.44-11.34-91.67-8.69-135.63 3.54-1.03.46-2.9.49-2.89 1.98-1.3 12.9-2.83 25.79-5.25 38.53 39.97-10.2 82.18-5.51 121.56 5.07 6.18 2.19 7.69 11.6 2.59 15.69-2.7 2.6-6.75 2.6-10.16 1.76a410.38 410.38 0 0 0-18.25-4.09c-32.91-6.59-67.9-8.28-100.06 2.8a377.3 377.3 0 0 1-10.61 35.27c-3.97 10.71-9.18 20.89-13.81 31.31-2.85 6.5-6.54 12.58-10.27 18.6-20.01 31.61-48 57.77-79.67 77.48-51.57 32.14-111.15 49.04-170.88 57.79-.88-.03-3.32.92-1.72 2.01a187.84 187.84 0 0 1 34.96 61.72c21.3.37 42.98 2.53 63.93-2.48A92.52 92.52 0 0 0 856.96 783c14.55-11.15 26.15-25.66 36.17-40.9 7.08-10.53 18.14-18.72 30.77-20.96 9.79-1.87 20.53.28 28.32 6.65 6.14 5 9.95 12.42 11.36 20.13 2 10.46.01 21.22-3.32 31.2-6.96 20.5-20.77 38.06-36.99 52.12-25.03 21.76-55.39 37.02-87.29 45.76-22.93 6.19-47.28 8.81-70.75 4.09-.74 43.31-.33 86.63-.37 129.94.26 6.92-.86 14.04 1.33 20.75 4.28 15.49 14.4 29.65 28.63 37.42 4.98 2.85 10.91 3.83 15.48 7.47 6.84 4.95 11.59 13.64 9.71 22.21-1.91 9.1-11.03 14.97-19.87 15.74-11.65.84-23.39.33-34.96-1.24-22.9-3.13-46.16-11.07-63.02-27.46-14.6-13.94-22.58-33.93-23.31-53.95-.32-35.64 0-71.29-.21-106.94.07-19.78.77-39.65-1.59-59.34-1.25 13.05-.46 26.21-.69 39.32-.01 44.32.01 88.65-.01 132.97-.61 24.24 8.29 48.92 25.55 66.17 5.54 5.56 10.81 12.55 10.61 20.8-.17 8.19-6.98 14.82-14.53 16.96-15.25 4.82-31.59.91-45.9-5.11-17.03-7.14-32.49-18.36-43.85-32.98-9.87-12.68-16.33-27.85-19.38-43.58-3-14.9-1.9-30.17-2.34-45.26.03-26.01-1.16-52.04.18-78.02-.08-8.5.05-17.01-.22-25.51-.3 14.5.37 29.04-1.33 43.48-.43 28.35-.39 56.71-.84 85.07-.4 19.21-5.21 38.56-15.36 55-9.98 16.33-24.89 29.37-41.86 38.07-14.21 7.08-30.1 12.6-46.19 10.59-7.51-1.08-15.78-3.73-19.86-10.65-3.51-5.4-2.95-12.48-.08-18.02 3.36-6.94 9.57-11.75 14.37-17.61 8.1-9.69 14.56-20.94 17.77-33.22 4.29-15.3 4.45-31.35 4.34-47.12-.97-49.1-1.25-98.22-2.63-147.3-1.63 18.69-.94 37.47-.77 56.21.5 33.01 1.45 66 1.55 99.02 1.24 30.86-18.19 60.21-44.98 74.52-19.39 10.61-41.64 14.79-63.55 15.44-7.46.15-15.17.68-22.34-1.78-5.76-1.93-11-6.24-12.91-12.14-2.34-7.04-.3-15.15 4.75-20.51 4.54-5.35 11.38-7.57 17.58-10.31 7.33-3.08 13.28-8.65 18.37-14.62 7.1-8.71 12.42-19.3 13.61-30.57.26-48.12-.01-96.24.15-144.36-27.03 5.57-55.07 1.29-81.09-6.92-31.01-10.11-60.37-26.25-83.96-48.95-13.35-12.99-24.52-28.63-30.45-46.4-3.4-10.35-5.36-21.59-2.85-32.36 1.68-7.74 5.97-15.04 12.47-19.69 7.89-5.68 18.24-7.38 27.67-5.39 12.35 2.46 23.11 10.55 30.04 20.92 8.61 13.09 18.36 25.57 30.18 35.94 11.94 10.61 26.4 18.49 42.03 21.97 20.57 4.64 41.77 2.54 62.63 2.22 3.8-13.51 9.07-26.65 16.32-38.69 5.06-8.83 11.69-16.55 18.3-24.21-37.35-5.95-74.49-14.29-109.88-27.8-29.89-11.42-58.7-26.21-84.11-45.78-27.19-20.86-50.75-47.02-66.39-77.66-5.12-11.58-10.33-23.12-15.37-34.74-4.66-11.69-7.48-23.98-10.97-36.05-35.95-11.22-74.63-7.42-110.68 1.31-4.73 1.21-10.69 3.14-14.73-.75-5.27-4.34-3.31-14.33 3.46-15.95 38.21-9.88 78.89-14.88 117.7-5.33-2-13.27-3.84-26.56-5.2-39.91-43.86-12.25-90.98-14.89-135.33-3.6-4.5 1.38-9.86-.97-11.59-5.4-2.23-4.96.85-11.52 6.21-12.71 45.59-11.82 94.01-9.81 139.44 1.69-1.01-22.1-1.72-44.33.75-66.36a264.11 264.11 0 0 1 18.71-73.45c11.34-27.52 27.73-52.85 47.44-75.12-10.14-29.97-13.43-62.05-10.84-93.52a282.84 282.84 0 0 1 20.51-84.49m14.67 13.71a276.09 276.09 0 0 0-14.51 55.76c-5.32 35.77-3.13 73.2 9.93 107.14 1 3.3.72 7.32-1.85 9.86-35.66 37.86-59.17 87.25-64.84 139.04-2.71 21.87-2.22 43.98-1.2 65.95.09 2.43.49 4.85.97 7.24a566.7 566.7 0 0 1 30.25 10.57c3.84 1.25 6.21 5.35 6.02 9.29-.2 5.59-6.24 10.13-11.65 8.44-7.86-2.46-15.39-5.9-23.38-7.93a382.33 382.33 0 0 0 5.98 39.55c5.38 2.92 11.44 4.16 16.99 6.68 7.93 2.29 7.85 14.95.16 17.46-4 1.53-8.13-.54-11.85-1.91 3.96 16.45 11.24 31.79 18.18 47.14 1.89 4.09 3.49 8.34 5.75 12.26 15.47 27.95 37.82 51.77 63.56 70.53 25.38 18.4 53.84 32.23 83.33 42.66 38.68 13.59 79.12 21.69 119.81 26.22 7.23 1.38 10.22 12.52 3.7 16.68-21.24 13.7-35.44 36.09-43.3 59.74a274.7 274.7 0 0 0-10.79 49.35c-1.31 9.64-.84 19.38-.88 29.08.43 45.33 2.76 90.64 2.63 135.98l.05.29c-.39 4.91.64 9.87-.14 14.8-.28 5.83-2.76 11.17-4.19 16.75a72.15 72.15 0 0 1-3.63 7.85c-.88 1.62-1.81 3.22-2.78 4.81l-.14.22c-7.21 11.76-17.49 21.73-29.86 27.94-4.41 2.33-9.53 3.25-13.48 6.46l.9 2.43c17.57 1.91 35.47-.28 52.43-5.08 15.13-4.45 29.62-12.88 38.97-25.84 7.64-10.51 10.74-23.68 10.99-36.51.08-36.34.11-72.69.09-109.04.28-19.7-1.23-39.65 2.9-59.07 3.37-15.46 9.66-32.04 23.55-40.96 5.55-3.21 13.54 1.5 13.52 7.89.07 69.06.01 138.12.03 207.18 1.25 28.8-8.01 58.44-27.66 79.86-2.81 3.09-6.15 5.8-8.08 9.6 6.72 2.58 14.15 1.86 21.01.23 19.86-5.17 38.28-16.76 50.51-33.37 10.84-14.54 15.65-32.77 16.14-50.72.73-73.23 1.36-146.47 1.8-219.7-.39-4.9 3.66-9.65 8.59-9.84 6.41-.27 12.83-.24 19.24-.01 4.56.11 8.57 4.24 8.67 8.78.42 72.24 1.12 144.49 1.75 216.73.1 13.17 1.91 26.48 7.07 38.68 10.69 25.58 35.1 43.88 61.77 50.04 6.09.99 12.88 1.81 18.62-.96-1.61-3.95-5.25-6.35-7.9-9.5-18.76-20.74-28.41-49.03-27.56-76.87.08-70.01 0-140.02.04-210.03-.34-7.1 9.25-11.75 14.7-7.28 12.74 9.13 18.92 24.52 22.14 39.34 4.01 17.71 3 35.97 3.08 53.98-.04 32.66.04 65.32.07 97.98.09 7.65-.25 15.32.32 22.96 1.11 12.68 5.61 25.33 14.09 34.98a69.32 69.32 0 0 0 19.28 14.81c15.57 8.19 33.28 11.34 50.71 12.25 6.53.07 13.27 1.07 19.6-1.09-1.98-4.56-7.43-5.1-11.41-7.03-20.79-9.06-35.39-28.83-42-50.09-2.92-8.99-2.14-18.51-2.23-27.8V909.03c.52-28.37 1.29-56.89-2.38-85.1-2.45-17.42-9.71-33.8-18.79-48.73-8.33-13.52-17.77-26.93-31.04-36.03-5.93-4.61-2.3-15.62 5.15-16.04 38.07-4.5 75.97-11.66 112.38-23.82 29.86-10 58.73-23.4 84.76-41.22 25.79-17.75 48.48-40.36 64.81-67.16 6.78-10.54 11.2-22.31 16.64-33.53 4.76-10.1 7.83-20.86 11.23-31.45-4.37 1.82-9.85.92-12.89-2.85-3.28-3.7-2.24-9.9 1.61-12.78 4.95-3.73 11.58-3.86 16.72-7.28a406.26 406.26 0 0 0 6.09-39.84c-6.97 2.23-13.72 5.08-20.7 7.25-5.08 1.73-10.51-2.39-11.5-7.37-.89-3.96 1.42-8.18 5.02-9.92 9.37-4.15 19.39-6.64 28.85-10.58 1.3-18.17 1.8-36.42.98-54.62-1.11-27.09-6.61-54-16.54-79.24-11.1-28.6-27.85-54.88-48.64-77.41-2.98-2.76-4.74-6.94-3.17-10.93 7.32-18.93 11.14-39.11 12.31-59.34 1.92-35.82-4.58-71.93-17.59-105.3-25.97-1.88-51.28 6.15-75.2 15.4-32.36 13.14-62.72 30.74-91.7 50.11-2.91 1.83-5.68 4.48-9.32 4.47-2.76-.06-5.34-1.11-7.98-1.74a578.85 578.85 0 0 0-82.03-15.41c-8.47-1.03-16.92-2.3-25.47-2.32-13.58-1.73-27.34-1.85-41.02-2.25a395.3 395.3 0 0 0-22.58.08c-13.47.05-26.9 1-40.32 1.86v.72c-8.6-.84-17.1 1.23-25.63 1.92a596.86 596.86 0 0 0-86.69 16.75c-2.6.74-5.45.38-7.74-1.05-36.11-24.3-74.17-46.6-115.74-60.14-16.77-5.25-34.25-9.32-51.92-8.73-1.53.33-4.07-.24-4.55 1.76m-12.87 687.38c-4.3 7.3-2.94 16.26-.98 24.08 4.61 16.78 15.17 31.35 27.58 43.28 25.5 23.99 57.85 40.11 91.77 48.26 19.16 4.27 39.42 6.28 58.63 1.19 1.17-13.33 2.25-26.67 3.32-40.01-12.92-.69-25.86.76-38.78.02-13.24-.76-26.45-3.13-38.95-7.59-14.13-5.77-27.06-14.3-38.4-24.47a208.72 208.72 0 0 1-29.4-35.61c-4.46-7.22-11.63-13.19-20.2-14.51-5.27-.77-11.71.36-14.59 5.36m688.05-.01c-5.37 3.71-8.53 9.57-12.26 14.75a187.04 187.04 0 0 1-18.33 22.74c-10.19 11.4-22.73 20.57-36.23 27.67-12.83 6.93-27.39 9.88-41.76 11.49-15.17 1.75-30.41-.25-45.6.52 1.63 13.24 2.21 26.57 3.01 39.88 16.83 4.66 34.64 3.57 51.64.45 34.18-6.76 66.92-21.93 93.42-44.66 11.58-9.88 21.65-21.75 28.38-35.47 3.88-8.07 6.58-16.88 6.73-25.89-.13-5.69-1.8-12.44-7.3-15.22-7.2-3.19-15.66-.83-21.7 3.74z"/><path d="M396.45 485.62c10.19-2.2 21.41.73 28.96 7.99 8.45 7.8 12.38 20.2 9.55 31.4-2.67 11.37-11.8 21.02-23.17 23.92-13.54 3.78-29.11-2.19-36.33-14.31-7.58-11.83-6.13-28.45 3.35-38.81a32.02 32.02 0 0 1 17.64-10.19zm352.97.98c13.33-3.63 28.47 3.07 34.73 15.39 6.88 12.5 3.42 29.55-7.93 38.25-9.27 7.58-23.16 8.9-33.68 3.17-10.56-5.53-17.29-17.6-16.18-29.5.84-12.8 10.54-24.38 23.06-27.31zm-175.39 10.38c.41-7.45 9.52-11.59 15.98-8.92 4.02 1.53 6.73 5.6 6.94 9.86.4 13.77.74 28.7 8.69 40.55 5.34 8.54 17.46 9.23 25.67 4.7 5.59-3.1 13.46-.11 15.58 5.92 1.91 4.54.28 10.14-3.51 13.19-3.15 2.59-7.31 3.2-10.88 4.99-.32 10.61-5.43 20.81-13.46 27.68-19.7 17.3-52.98 16.18-70.99-3.09a38.02 38.02 0 0 1-10.25-24.87c-4.43-1.9-9.75-2.93-12.6-7.21-3.72-5.05-2.26-13.04 3.29-16.13a11.52 11.52 0 0 1 11.88-.06c8.17 4.04 19.74 2.68 24.88-5.45 8.05-12.1 8.07-27.19 8.78-41.16m-17.23 71.03c.56 6.62 5.14 12.16 10.63 15.53 10.74 6.53 25.18 6.47 35.79-.29a23.06 23.06 0 0 0 10.54-14.78c-11.49-2.34-21.98-9.16-28.29-19.1-6.83 9.43-16.92 17-28.67 18.64z"/></g><g fill="#9e95b7"><path d="M241.35 57.17c.48-2 3.02-1.43 4.55-1.76 17.67-.59 35.15 3.48 51.92 8.73 41.57 13.54 79.63 35.84 115.74 60.14a9.69 9.69 0 0 0 7.74 1.05 596.86 596.86 0 0 1 86.69-16.75l3.01-.1c.08 8.53-.11 17.05.04 25.58a11.38 11.38 0 0 0 3.86 8.99c4.1 3.7 10.97 3.7 14.99-.13 2.59-2.17 3.76-5.57 3.72-8.88.22-9.13-.02-18.26.01-27.38v-.72c13.42-.86 26.85-1.81 40.32-1.86-.13 10.31-.31 20.62-.01 30.92-.12 6.22 5.99 11.36 12.06 10.77 5.54-.27 10.34-5.26 10.44-10.81.23-10.31.01-20.64.09-30.96 13.68.4 27.44.52 41.02 2.25.02 9.59-.24 19.19 0 28.78-.05 4.25 2.75 8.18 6.61 9.84 6.45 3.12 15.24-1.53 15.75-8.81.44-9.15.01-18.32.17-27.48l2.94-.01a578.85 578.85 0 0 1 82.03 15.41c2.64.63 5.22 1.68 7.98 1.74 3.64.01 6.41-2.64 9.32-4.47 28.98-19.37 59.34-36.97 91.7-50.11 23.92-9.25 49.23-17.28 75.2-15.4 13.01 33.37 19.51 69.48 17.59 105.3-1.17 20.23-4.99 40.41-12.31 59.34-1.57 3.99.19 8.17 3.17 10.93 20.79 22.53 37.54 48.81 48.64 77.41a244.06 244.06 0 0 1 16.54 79.24c.82 18.2.32 36.45-.98 54.62-9.46 3.94-19.48 6.43-28.85 10.58-3.6 1.74-5.91 5.96-5.02 9.92.99 4.98 6.42 9.1 11.5 7.37 6.98-2.17 13.73-5.02 20.7-7.25a406.26 406.26 0 0 1-6.09 39.84c-5.14 3.42-11.77 3.55-16.72 7.28-3.85 2.88-4.89 9.08-1.61 12.78 3.04 3.77 8.52 4.67 12.89 2.85-3.4 10.59-6.47 21.35-11.23 31.45-5.44 11.22-9.86 22.99-16.64 33.53-16.33 26.8-39.02 49.41-64.81 67.16-26.03 17.82-54.9 31.22-84.76 41.22-36.41 12.16-74.31 19.32-112.38 23.82-7.45.42-11.08 11.43-5.15 16.04 13.27 9.1 22.71 22.51 31.04 36.03 9.08 14.93 16.34 31.31 18.79 48.73 3.67 28.21 2.9 56.73 2.38 85.1V1010c.09 9.29-.69 18.81 2.23 27.8 6.61 21.26 21.21 41.03 42 50.09 3.98 1.93 9.43 2.47 11.41 7.03-6.33 2.16-13.07 1.16-19.6 1.09-17.43-.91-35.14-4.06-50.71-12.25a69.32 69.32 0 0 1-19.28-14.81c-8.48-9.65-12.98-22.3-14.09-34.98-.57-7.64-.23-15.31-.32-22.96-.03-32.66-.11-65.32-.07-97.98-.08-18.01.93-36.27-3.08-53.98-3.22-14.82-9.4-30.21-22.14-39.34-5.45-4.47-15.04.18-14.7 7.28-.04 70.01.04 140.02-.04 210.03-.85 27.84 8.8 56.13 27.56 76.87 2.65 3.15 6.29 5.55 7.9 9.5-5.74 2.77-12.53 1.95-18.62.96-26.67-6.16-51.08-24.46-61.77-50.04-5.16-12.2-6.97-25.51-7.07-38.68-.63-72.24-1.33-144.49-1.75-216.73-.1-4.54-4.11-8.67-8.67-8.78-6.41-.23-12.83-.26-19.24.01-4.93.19-8.98 4.94-8.59 9.84a55486.2 55486.2 0 0 1-1.8 219.7c-.49 17.95-5.3 36.18-16.14 50.72-12.23 16.61-30.65 28.2-50.51 33.37-6.86 1.63-14.29 2.35-21.01-.23 1.93-3.8 5.27-6.51 8.08-9.6 19.65-21.42 28.91-51.06 27.66-79.86-.02-69.06.04-138.12-.03-207.18.02-6.39-7.97-11.1-13.52-7.89-13.89 8.92-20.18 25.5-23.55 40.96-4.13 19.42-2.62 39.37-2.9 59.07.02 36.35-.01 72.7-.09 109.04-.25 12.83-3.35 26-10.99 36.51-9.35 12.96-23.84 21.39-38.97 25.84-16.96 4.8-34.86 6.99-52.43 5.08l-.9-2.43c3.95-3.21 9.07-4.13 13.48-6.46 12.37-6.21 22.65-16.18 29.86-27.94l.14-.22a110.72 110.72 0 0 0 2.92-5.07c1.31-2.47 2.48-5 3.49-7.59 4.59-9.84 5.29-20.89 4.33-31.55l-.05-.29c.13-45.34-2.2-90.65-2.63-135.98.04-9.7-.43-19.44.88-29.08a274.7 274.7 0 0 1 10.79-49.35c7.86-23.65 22.06-46.04 43.3-59.74 6.52-4.16 3.53-15.3-3.7-16.68-40.69-4.53-81.13-12.63-119.81-26.22-29.49-10.43-57.95-24.26-83.33-42.66-25.74-18.76-48.09-42.58-63.56-70.53-2.26-3.92-3.86-8.17-5.75-12.26-6.94-15.35-14.22-30.69-18.18-47.14 3.72 1.37 7.85 3.44 11.85 1.91 7.69-2.51 7.77-15.17-.16-17.46-5.55-2.52-11.61-3.76-16.99-6.68a382.33 382.33 0 0 1-5.98-39.55c7.99 2.03 15.52 5.47 23.38 7.93 5.41 1.69 11.45-2.85 11.65-8.44.19-3.94-2.18-8.04-6.02-9.29a566.7 566.7 0 0 0-30.25-10.57 45.46 45.46 0 0 1-.97-7.24c-1.02-21.97-1.51-44.08 1.2-65.95 5.67-51.79 29.18-101.18 64.84-139.04 2.57-2.54 2.85-6.56 1.85-9.86-13.06-33.94-15.25-71.37-9.93-107.14a276.09 276.09 0 0 1 14.51-55.76m155.1 428.45a32.02 32.02 0 0 0-17.64 10.19c-9.48 10.36-10.93 26.98-3.35 38.81 7.22 12.12 22.79 18.09 36.33 14.31 11.37-2.9 20.5-12.55 23.17-23.92 2.83-11.2-1.1-23.6-9.55-31.4-7.55-7.26-18.77-10.19-28.96-7.99m352.97.98c-12.52 2.93-22.22 14.51-23.06 27.31-1.11 11.9 5.62 23.97 16.18 29.5 10.52 5.73 24.41 4.41 33.68-3.17 11.35-8.7 14.81-25.75 7.93-38.25-6.26-12.32-21.4-19.02-34.73-15.39m-175.39 10.38c-.71 13.97-.73 29.06-8.78 41.16-5.14 8.13-16.71 9.49-24.88 5.45a11.52 11.52 0 0 0-11.88.06c-5.55 3.09-7.01 11.08-3.29 16.13 2.85 4.28 8.17 5.31 12.6 7.21a38.02 38.02 0 0 0 10.25 24.87c18.01 19.27 51.29 20.39 70.99 3.09 8.03-6.87 13.14-17.07 13.46-27.68 3.57-1.79 7.73-2.4 10.88-4.99 3.79-3.05 5.42-8.65 3.51-13.19-2.12-6.03-9.99-9.02-15.58-5.92-8.21 4.53-20.33 3.84-25.67-4.7-7.95-11.85-8.29-26.78-8.69-40.55-.21-4.26-2.92-8.33-6.94-9.86-6.46-2.67-15.57 1.47-15.98 8.92z"/><path d="M228.48 744.55c2.88-5 9.32-6.13 14.59-5.36 8.57 1.32 15.74 7.29 20.2 14.51a208.72 208.72 0 0 0 29.4 35.61c11.34 10.17 24.27 18.7 38.4 24.47 12.5 4.46 25.71 6.83 38.95 7.59 12.92.74 25.86-.71 38.78-.02a5346.86 5346.86 0 0 1-3.32 40.01c-19.21 5.09-39.47 3.08-58.63-1.19-33.92-8.15-66.27-24.27-91.77-48.26-12.41-11.93-22.97-26.5-27.58-43.28-1.96-7.82-3.32-16.78.98-24.08zm688.05-.01c6.04-4.57 14.5-6.93 21.7-3.74 5.5 2.78 7.17 9.53 7.3 15.22-.15 9.01-2.85 17.82-6.73 25.89-6.73 13.72-16.8 25.59-28.38 35.47-26.5 22.73-59.24 37.9-93.42 44.66-17 3.12-34.81 4.21-51.64-.45-.8-13.31-1.38-26.64-3.01-39.88 15.19-.77 30.43 1.23 45.6-.52 14.37-1.61 28.93-4.56 41.76-11.49 13.5-7.1 26.04-16.27 36.23-27.67a187.04 187.04 0 0 0 18.33-22.74c3.73-5.18 6.89-11.04 12.26-14.75z"/></g><path d="M573.94 104.08a395.3 395.3 0 0 1 22.58-.08c-.08 10.32.14 20.65-.09 30.96-.1 5.55-4.9 10.54-10.44 10.81-6.07.59-12.18-4.55-12.06-10.77-.3-10.3-.12-20.61.01-30.92zm63.6 2.17c8.55.02 17 1.29 25.47 2.32l-2.94.01c-.16 9.16.27 18.33-.17 27.48-.51 7.28-9.3 11.93-15.75 8.81-3.86-1.66-6.66-5.59-6.61-9.84-.24-9.59.02-19.19 0-28.78zm-129.55 2.33c8.53-.69 17.03-2.76 25.63-1.92-.03 9.12.21 18.25-.01 27.38.04 3.31-1.13 6.71-3.72 8.88-4.02 3.83-10.89 3.83-14.99.13a11.38 11.38 0 0 1-3.86-8.99c-.15-8.53.04-17.05-.04-25.58l-3.01.1z" fill="#706793"/><path fill="#ed9fc2" d="M556.8 568.01c11.75-1.64 21.84-9.21 28.67-18.64 6.31 9.94 16.8 16.76 28.29 19.1a23.06 23.06 0 0 1-10.54 14.78c-10.61 6.76-25.05 6.82-35.79.29-5.49-3.37-10.07-8.91-10.63-15.53z"/><path fill="#4e4263" d="M413.53 1058.67l.14-.22-.14.22z" opacity=".71"/></svg>